<svg width="20" height="20" viewBox="0 0 20 20" fill="none" xmlns="http://www.w3.org/2000/svg">
<path d="M16.25 1.875H3.75C3.25272 1.875 2.77581 2.07254 2.42417 2.42417C2.07254 2.77581 1.875 3.25272 1.875 3.75V19.0062L5.075 15.8063C5.19477 15.692 5.35327 15.6273 5.51875 15.625H16.25C16.7473 15.625 17.2242 15.4275 17.5758 15.0758C17.9275 14.7242 18.125 14.2473 18.125 13.75V3.75C18.125 3.25272 17.9275 2.77581 17.5758 2.42417C17.2242 2.07254 16.7473 1.875 16.25 1.875ZM16.875 13.75C16.875 13.9158 16.8092 14.0747 16.6919 14.1919C16.5747 14.3092 16.4158 14.375 16.25 14.375H5.51875C5.02164 14.3754 4.54504 14.5733 4.19375 14.925L3.125 15.9938V3.75C3.125 3.58424 3.19085 3.42527 3.30806 3.30806C3.42527 3.19085 3.58424 3.125 3.75 3.125H16.25C16.4158 3.125 16.5747 3.19085 16.6919 3.30806C16.8092 3.42527 16.875 3.58424 16.875 3.75V13.75Z" fill="#8F92A1"/>
</svg>
