<svg width="26" height="26" viewBox="0 0 26 26" fill="none" xmlns="http://www.w3.org/2000/svg">
<path d="M10.4955 13.0055L20.2221 3.27854C20.4899 3.01135 20.6372 2.65411 20.6372 2.2732C20.6372 1.89208 20.4899 1.53506 20.2221 1.26745L19.3698 0.415577C19.1024 0.147545 18.7449 0 18.364 0C17.9831 0 17.6261 0.147545 17.3585 0.415577L5.7775 11.9964C5.50883 12.2648 5.36171 12.6235 5.36277 13.0049C5.36171 13.3879 5.50862 13.7462 5.7775 14.0148L17.3477 25.5844C17.6153 25.8525 17.9723 26 18.3535 26C18.7344 26 19.0914 25.8525 19.3592 25.5844L20.2113 24.7326C20.7658 24.1781 20.7658 23.2755 20.2113 22.7213L10.4955 13.0055Z" fill="#8F92A1"/>
</svg>
