<svg width="20" height="20" viewBox="0 0 20 20" fill="none" xmlns="http://www.w3.org/2000/svg">
<path d="M9.96603 16.4203C9.91796 16.4203 9.87008 16.4144 9.82345 16.4027C7.74142 15.8805 6.01876 14.9898 4.70392 13.7555C3.57384 12.6953 2.76993 11.3883 2.3797 9.97656C2.09845 8.96094 2.03946 7.91914 2.20939 6.96875C2.37931 6.01836 2.76056 5.22461 3.31329 4.67187C4.70626 3.27891 6.78985 3.26055 8.23517 3.85977C8.8965 4.1332 9.45821 4.54023 9.86017 5.03555C9.89636 5.08008 9.93113 5.12526 9.96446 5.17109C9.99806 5.12526 10.033 5.08008 10.0692 5.03555C10.4707 4.54023 11.0328 4.13359 11.6942 3.85977C13.1395 3.26055 15.2246 3.27891 16.616 4.67187C17.1688 5.22461 17.5504 6.01875 17.7199 6.96875C17.8895 7.91875 17.8309 8.96094 17.5496 9.97656C17.159 11.3883 16.3555 12.6949 15.2254 13.7555C13.9106 14.9898 12.1879 15.8805 10.1055 16.4027C10.0599 16.4142 10.013 16.4201 9.96603 16.4203V16.4203ZM6.34806 4.64609C5.42345 4.64609 4.62931 5.01133 4.14181 5.49883C3.32032 6.32227 3.0586 8.03516 3.50899 9.66445C3.8422 10.8684 4.53243 11.9879 5.50587 12.9012C6.64415 13.9695 8.14415 14.7523 9.96603 15.2297C11.7883 14.7523 13.2883 13.9695 14.4266 12.9012C15.3996 11.9879 16.0902 10.8699 16.4231 9.66445C16.8738 8.03516 16.6137 6.32227 15.7906 5.49883C15.0625 4.77109 13.6527 4.31602 12.1442 4.94102C11.1473 5.35391 10.552 6.09844 10.552 6.9332C10.552 7.0886 10.4902 7.23764 10.3803 7.34752C10.2705 7.45741 10.1214 7.51914 9.96603 7.51914C9.81063 7.51914 9.66159 7.45741 9.55171 7.34752C9.44182 7.23764 9.38009 7.0886 9.38009 6.9332C9.38009 6.09844 8.78517 5.35391 7.78829 4.94102C7.33234 4.74875 6.84288 4.64852 6.34806 4.64609V4.64609Z" fill="#8F92A1"/>
</svg>
