<svg width="20" height="20" viewBox="0 0 20 20" fill="none" xmlns="http://www.w3.org/2000/svg">
<path d="M10 0C5.79988 0 2.38281 3.41707 2.38281 7.61719C2.38281 10.3286 3.20762 11.4159 7.17113 16.641C7.85914 17.548 8.63898 18.576 9.53125 19.7656C9.64191 19.9132 9.81559 20 10 20C10.1845 20 10.3581 19.9131 10.4688 19.7655C11.3558 18.5823 12.1323 17.5582 12.8173 16.6547C16.7904 11.4144 17.6172 10.3239 17.6172 7.61719C17.6172 3.41707 14.2001 0 10 0ZM11.8836 15.9467C11.3209 16.6888 10.6967 17.5121 9.99988 18.4384C9.29828 17.5061 8.67055 16.6786 8.10477 15.9327C4.24937 10.8502 3.55469 9.93441 3.55469 7.61719C3.55469 4.06324 6.44605 1.17188 10 1.17188C13.5539 1.17188 16.4453 4.06324 16.4453 7.61719C16.4453 9.92988 15.7488 10.8485 11.8836 15.9467Z" fill="#1E1F20"/>
<path d="M10 3.51562C7.7384 3.51562 5.89844 5.35559 5.89844 7.61719C5.89844 9.87879 7.7384 11.7188 10 11.7188C12.2616 11.7188 14.1016 9.87879 14.1016 7.61719C14.1016 5.35559 12.2616 3.51562 10 3.51562ZM10 10.5469C8.38457 10.5469 7.07031 9.23262 7.07031 7.61719C7.07031 6.00176 8.38457 4.6875 10 4.6875C11.6154 4.6875 12.9297 6.00176 12.9297 7.61719C12.9297 9.23262 11.6154 10.5469 10 10.5469Z" fill="#1E1F20"/>
</svg>
