<svg width="20" height="20" viewBox="0 0 20 20" fill="none" xmlns="http://www.w3.org/2000/svg">
<path d="M15.7296 12.4531C14.5641 12.4531 13.5207 12.9851 12.8284 13.819L8.32489 11.2605C8.46494 10.8662 8.54191 10.4422 8.54191 10.0003C8.54191 9.55852 8.46494 9.13452 8.32489 8.74018L12.828 6.18111C13.5202 7.01529 14.5638 7.54748 15.7294 7.54748C17.8085 7.54748 19.4999 5.85437 19.4999 3.77317C19.5001 1.69258 17.8086 0 15.7296 0C13.6503 0 11.9586 1.69258 11.9586 3.77308C11.9586 4.21495 12.0355 4.63904 12.1756 5.03347L7.67225 7.59263C6.98003 6.75889 5.93672 6.22705 4.77148 6.22705C2.6919 6.22705 1 7.91964 1 10.0002C1 12.0807 2.6919 13.7733 4.77148 13.7733C5.93672 13.7733 6.97994 13.2415 7.67216 12.4078L12.1756 14.9664C12.0355 15.3608 11.9585 15.785 11.9585 16.2269C11.9585 18.3074 13.6502 20 15.7295 20C17.8085 20 19.5 18.3073 19.5 16.2269C19.5001 14.1461 17.8086 12.4531 15.7296 12.4531ZM15.7296 1.32034C17.081 1.32034 18.1806 2.42062 18.1806 3.77308C18.1806 5.12625 17.081 6.22705 15.7296 6.22705C14.3778 6.22705 13.2781 5.12625 13.2781 3.77308C13.2781 2.42062 14.3778 1.32034 15.7296 1.32034ZM4.77157 12.4531C3.41958 12.4531 2.31962 11.3527 2.31962 10.0003C2.31962 8.64776 3.41958 7.54748 4.77157 7.54748C6.12303 7.54748 7.22247 8.64776 7.22247 10.0003C7.22247 11.3527 6.12295 12.4531 4.77157 12.4531ZM15.7296 18.6798C14.3778 18.6798 13.2781 17.5794 13.2781 16.227C13.2781 14.8741 14.3778 13.7734 15.7296 13.7734C17.081 13.7734 18.1806 14.8741 18.1806 16.227C18.1806 17.5794 17.081 18.6798 15.7296 18.6798Z" fill="#1E1F20"/>
</svg>
